<svg width="24" height="24" viewBox="0 0 24 24" fill="none" xmlns="http://www.w3.org/2000/svg">
<g id="icon=Mail">
<path id="Vector" d="M4 6.00024L10.1076 10.6125L10.1097 10.6142C10.7878 11.1115 11.1271 11.3603 11.4988 11.4565C11.8272 11.5414 12.1725 11.5414 12.501 11.4565C12.8729 11.3603 13.2132 11.1107 13.8926 10.6125C13.8926 10.6125 17.8101 7.60618 20 6.00024M3 15.8004V8.20044C3 7.08033 3 6.51986 3.21799 6.09204C3.40973 5.71572 3.71547 5.40998 4.0918 5.21823C4.51962 5.00024 5.08009 5.00024 6.2002 5.00024H17.8002C18.9203 5.00024 19.4796 5.00024 19.9074 5.21823C20.2837 5.40998 20.5905 5.71572 20.7822 6.09204C21 6.51945 21 7.07924 21 8.19715V15.8038C21 16.9217 21 17.4807 20.7822 17.9081C20.5905 18.2844 20.2837 18.5907 19.9074 18.7825C19.48 19.0002 18.921 19.0002 17.8031 19.0002H6.19691C5.07899 19.0002 4.5192 19.0002 4.0918 18.7825C3.71547 18.5907 3.40973 18.2844 3.21799 17.9081C3 17.4803 3 16.9205 3 15.8004Z" stroke="#17181A" stroke-width="1.5" stroke-linecap="round" stroke-linejoin="round"/>
</g>
</svg>
